<svg xmlns="http://www.w3.org/2000/svg" width="240" height="240" viewBox="0 0 240 240">
  <defs>
    <linearGradient id="iconBg" x1="0" y1="0" x2="0" y2="1">
      <stop offset="0%" stop-color="#4a9bf5"></stop>
      <stop offset="100%" stop-color="#1b62c9"></stop>
    </linearGradient>
    <radialGradient id="iconGlow" cx="50%" cy="34%" r="70%">
      <stop offset="0%" stop-color="#ffffff" stop-opacity="0.28"></stop>
      <stop offset="60%" stop-color="#ffffff" stop-opacity="0"></stop>
    </radialGradient>
    <linearGradient id="bladeWhite" x1="0" y1="0" x2="0" y2="1">
      <stop offset="0%" stop-color="#ffffff"></stop>
      <stop offset="100%" stop-color="#e4eefb"></stop>
    </linearGradient>
  </defs>
  <rect x="16" y="16" width="208" height="208" rx="52" fill="url(#iconBg)"></rect>
  <rect x="16" y="16" width="208" height="208" rx="52" fill="url(#iconGlow)"></rect>
  <g>
    <path d="M120 120 C 98 84, 106 50, 134 36 C 128 66, 136 96, 120 120 Z" fill="url(#bladeWhite)" transform="rotate(0 120 120)"></path>
    <path d="M120 120 C 98 84, 106 50, 134 36 C 128 66, 136 96, 120 120 Z" fill="url(#bladeWhite)" transform="rotate(60 120 120)"></path>
    <path d="M120 120 C 98 84, 106 50, 134 36 C 128 66, 136 96, 120 120 Z" fill="url(#bladeWhite)" transform="rotate(120 120 120)"></path>
    <path d="M120 120 C 98 84, 106 50, 134 36 C 128 66, 136 96, 120 120 Z" fill="url(#bladeWhite)" transform="rotate(180 120 120)"></path>
    <path d="M120 120 C 98 84, 106 50, 134 36 C 128 66, 136 96, 120 120 Z" fill="url(#bladeWhite)" transform="rotate(240 120 120)"></path>
    <path d="M120 120 C 98 84, 106 50, 134 36 C 128 66, 136 96, 120 120 Z" fill="url(#bladeWhite)" transform="rotate(300 120 120)"></path>
  </g>
  <circle cx="120" cy="120" r="20" fill="#1b62c9"></circle>
  <circle cx="120" cy="120" r="20" fill="none" stroke="rgba(255,255,255,0.35)" stroke-width="2"></circle>
  <circle cx="120" cy="120" r="8" fill="#ffffff"></circle>
  <rect x="17" y="17" width="206" height="206" rx="51" fill="none" stroke="rgba(255,255,255,0.35)" stroke-width="1.5"></rect>
</svg>